<?xml version="1.0" standalone="no"?>
<!DOCTYPE svg PUBLIC "-//W3C//DTD SVG 20010904//EN"
 "http://www.w3.org/TR/2001/REC-SVG-20010904/DTD/svg10.dtd">
<svg version="1.0" xmlns="http://www.w3.org/2000/svg"
 width="191.000000pt" height="52.000000pt" viewBox="0 0 191.000000 52.000000"
 preserveAspectRatio="xMidYMid meet">
<metadata>
Created by potrace 1.16, written by Peter Selinger 2001-2019
</metadata>
<g transform="translate(0.000000,52.000000) scale(0.100000,-0.100000)"
fill="#000000" stroke="none">
<path d="M555 364 c-46 -24 -63 -43 -81 -90 -22 -58 -14 -150 16 -199 46 -74
168 -99 260 -53 l45 23 3 78 3 77 -81 0 -80 0 0 -30 c0 -28 2 -30 40 -30 36 0
40 -2 40 -26 0 -19 -8 -28 -36 -40 -68 -28 -127 10 -139 89 -14 89 27 152 97
152 32 0 45 -6 62 -28 22 -27 58 -35 84 -18 20 12 -10 67 -51 91 -40 25 -138
27 -182 4z"/>
<path d="M1330 190 l0 -180 35 0 c19 0 35 5 35 10 0 7 6 7 19 0 11 -5 37 -10
59 -10 76 0 119 64 109 163 -3 41 -11 56 -36 79 -33 30 -85 37 -122 18 -18
-10 -19 -7 -19 45 l0 55 -40 0 -40 0 0 -180z"/>
<path d="M946 264 c-9 -8 -16 -11 -16 -5 0 6 -16 11 -35 11 l-35 0 0 -130 0
-130 40 0 40 0 0 89 c0 96 14 128 52 118 19 -5 38 18 38 47 0 22 -63 21 -84 0z"/>
<path d="M1068 249 c-25 -25 -29 -33 -17 -40 19 -12 69 -12 69 0 0 13 34 23
54 15 30 -11 17 -33 -26 -44 -24 -6 -55 -16 -70 -21 -51 -20 -60 -102 -15
-134 25 -17 89 -20 117 -5 13 7 21 7 25 0 3 -5 24 -10 46 -10 36 0 39 2 29 19
-5 11 -10 62 -10 115 0 90 -1 95 -26 115 -20 16 -41 21 -86 21 -53 0 -63 -3
-90 -31z"/>
</g>
</svg>
